<svg xmlns="http://www.w3.org/2000/svg" viewBox="-53 0 511 512"><linearGradient id="a" x1=".5" x2="406.4" y1="256" y2="256" gradientUnits="userSpaceOnUse"><stop offset="0" stop-color="#00f2fe"/><stop offset="0" stop-color="#03effe"/><stop offset=".3" stop-color="#24d2fe"/><stop offset=".6" stop-color="#3cbdfe"/><stop offset=".8" stop-color="#4ab0fe"/><stop offset="1" stop-color="#4facfe"/></linearGradient><path fill="url(#a)" d="M315 379v32h48a20 20 0 110 40h-48v41a20 20 0 11-40 0V379c0-28 23-50 50-50h38a20 20 0 110 40h-38c-5 0-10 4-10 10zm74-284l-78-77a60 60 0 00-42-18H81C36 0 1 36 1 80v190a20 20 0 1040 0V80c0-22 17-40 40-40h188c5 0 10 2 14 6l78 77c3 4 5 9 5 15v132a20 20 0 0040 0V138c0-16-6-32-17-43zM135 412h-35a20 20 0 000 40h14c-4 12-16 20-30 20-17 0-32-14-32-32v-38a32 32 0 0160-17 20 20 0 1034-20 72 72 0 00-134 37v38a72 72 0 00143 11v-19c0-11-9-20-20-20zm80-83c-11 0-20 9-20 20v143a20 20 0 0040 0V349c0-11-9-20-20-20zm0 0"/></svg>
