<svg xmlns="http://www.w3.org/2000/svg" viewBox="0 0 512 512"><path fill="#2196f3" d="M75 75h362c42 0 75 33 75 74v214c0 41-33 74-75 74H75c-42 0-75-33-75-74V149c0-41 33-74 75-74z"/><g fill="#fafafa"><path d="M181 309c-3 0-6-1-8-4l-45-60v54a11 11 0 01-21 0v-86a11 11 0 0119-6l45 60v-54a11 11 0 0121 0v86a11 11 0 01-11 10zM267 309h-43c-6 0-11-4-11-10v-86c0-6 5-10 11-10h43a11 11 0 010 21h-32v64h32a11 11 0 010 21z"/><path d="M267 267h-43a11 11 0 010-22h43a11 11 0 010 22zM373 309c-4 0-8-3-10-7l-11-34-11 34c-1 5-6 8-11 7-4 0-9-3-10-8l-21-85a11 11 0 0121-5l12 50 10-30a11 11 0 0120 0l10 30 12-50a11 11 0 1121 5l-21 85c-1 5-6 8-10 8h-1z"/></g></svg>
