<svg xmlns="http://www.w3.org/2000/svg" viewBox="0 0 512 512"><path fill="#72a3fc" d="M508 84L428 4c-3-2-7-4-11-4H15C7 0 0 7 0 15v482c0 8 7 15 15 15h482c8 0 15-7 15-15V95c0-4-2-8-4-11z"/><path fill="#2892fc" d="M508 84L428 4c-3-2-7-4-11-4H256v512h241c8 0 15-7 15-15V95c0-4-2-8-4-11z"/><path fill="#f9f9f9" d="M406 242H106c-8 0-15 7-15 15v255h330V257c0-8-7-15-15-15z"/><path fill="#dfe4ea" d="M421 257c0-8-7-15-15-15H256v270h165V257z"/><g fill="#fad557"><path d="M346 452H166a15 15 0 010-30h180a15 15 0 010 30zM346 332H166a15 15 0 010-30h180a15 15 0 010 30zM346 392H166a15 15 0 010-30h180a15 15 0 010 30z"/></g><path fill="#5458ea" d="M361 0H91v145c0 8 7 15 15 15h240c8 0 15-7 15-15V0z"/><path fill="#3545e3" d="M256 0v160h90c8 0 15-7 15-15V0H256z"/><g fill="#fcb12b"><path d="M346 422h-90v30h90a15 15 0 000-30zM346 302h-90v30h90a15 15 0 000-30zM346 362h-90v30h90a15 15 0 000-30z"/></g></svg>
